<svg version="1.1" xmlns="http://www.w3.org/2000/svg" viewBox="0 0 651.48046875 382.39062499999994">
  <!-- svg-source:excalidraw -->
  
  <defs>
    <style>
      @font-face {
        font-family: "Virgil";
        src: url("https://excalidraw.com/FG_Virgil.woff2");
      }
      @font-face {
        font-family: "Cascadia";
        src: url("https://excalidraw.com/Cascadia.woff2");
      }
    </style>
  </defs>
  <rect x="0" y="0" width="651.48046875" height="382.39062499999994" fill="#e3fafc"></rect><g transform="translate(64.9375 44.8828125) rotate(0 195.328125 36.734375)"><path d="M1.431943811251436 -0.6764443819244489 C83.17707766727322 -0.2802703332046881, 165.4193314203516 0.7866075080538854, 388.5338909282617 -1.9081730796819312 M0.769494147557897 0.6472292672519139 C151.60559070370437 -1.6206875058047026, 302.41656476040697 -1.6169775398109882, 391.6770146698637 -0.7459423595472163 M386.74407041072845 3.1790462732315063 C389.4510407328047 22.42168910978362, 386.76835106605665 43.023340735398236, 393.7467826604843 72.5708042383194 M389.73212987184525 -0.20270615816116333 C389.13570031380283 21.924703785497698, 390.6896611139737 41.84819527212531, 391.58737164735794 71.64178961515427 M392.3190178792495 74.14821435087556 C297.26263326717805 77.89385382534586, 203.28100836964367 74.17345639776593, 1.3973448527263983 74.71038135597757 M390.29878728800423 74.44331575200471 C239.88911133787198 70.39783360340304, 89.63852086158694 71.08159221770761, 1.0795755704800076 72.83431094045064 M-0.14582979679107666 74.11862909793854 C3.095171815212816 48.822238899488, 2.959601289089769 24.01766999009996, -1.2517601251602173 0.2869983911514282 M-1.636579692363739 74.13041990995407 C-0.8278302249871194 54.26519343582913, -1.322819620128721 38.817142254672945, -0.0531885027885437 0.5377818942070007" stroke="#0b7285" stroke-width="1" fill="none"></path></g><g transform="translate(212.6328125 68.6171875) rotate(0 52.5 12.5)"><text x="0" y="18" font-family="Virgil, Segoe UI Emoji" font-size="20px" fill="#0b7285" text-anchor="start" style="white-space: pre;" direction="ltr">struct tag</text></g><g transform="translate(67.431640625 148.509765625) rotate(0 197.48046875 35.634765625)"><path d="M0.9980091322704646 -1.9995320473997387 C83.89679071732405 1.7704530770698819, 169.39344952296824 1.7871653607015046, 393.6390452048003 -1.008260458895007 M-0.11059203301318454 0.03368185806835163 C107.3721775651269 -4.269670421556816, 215.465793303933 -3.640805767451778, 394.9558188627454 -0.9761281035972488 M392.1355880498886 1.55669367313385 C393.8859591128654 25.227190408681057, 391.44814249299236 43.967633433290764, 394.62291944026947 74.79976999759674 M394.4200990796089 1.1886093020439148 C393.602241434122 21.823195400822446, 394.9419688358554 41.460894292569726, 396.2576406598091 72.42775839567184 M395.30896404790377 71.276021613629 C261.5080585704322 65.86770168695504, 128.86300525019666 67.70589714786709, 1.896407891143629 70.68783214413126 M394.77597920475256 71.95122373509354 C278.30292345567904 67.09495582139004, 163.62892453031597 67.06127790476869, 0.7098244773326617 71.32571513742063 M1.3672698736190796 70.75360071659088 C-0.2548091525561176 47.90164139139233, 1.7138683681958355 22.752440855256282, 1.324083685874939 2.843600869178772 M0.45153599977493286 71.36377638578415 C1.4167476632050238 50.61142212228151, -1.5971626303740778 29.733274401747614, -0.8968355059623718 0.8532916903495789" stroke="#0b7285" stroke-width="1" fill="none"></path></g><g transform="translate(191.48828125 169.46875) rotate(0 77 12.5)"><text x="77" y="18" font-family="Virgil, Segoe UI Emoji" font-size="20px" fill="#0b7285" text-anchor="middle" style="white-space: pre;" direction="ltr">grammar parser</text></g><g transform="translate(73.9921875 245.517578125) rotate(0 197.48046875 35.634765625)"><path d="M1.186093063531408 0.9929954745997395 C122.31504881630627 -3.804879031549775, 243.7103833227528 -4.595515476437592, 395.88305369338474 0.856000373639902 M0.34437296363375614 0.7483617525432752 C149.83790805221943 -0.8438583899036989, 299.7783206995009 -0.3021020449703381, 395.9809537187006 -0.019636665934230198 M394.8330444097519 2.472640633583069 C390.5512622425682 19.469681620423216, 390.28702960707017 36.466356396325864, 397.59112775325775 73.18324625492096 M393.133565723896 -1.0630043148994446 C393.9846292085596 21.165717876690906, 393.0598302431055 47.245209111250006, 393.3025282025337 70.19433325529099 M395.28057575878967 71.77617053605725 C295.7258459045895 76.90432715375664, 194.132950076644 76.32693409586605, 1.9922594950463266 69.83509988124534 M394.4205070235621 71.34474924179304 C286.83698798035874 74.00854841537738, 181.31981701092687 74.04499233667907, 0.3809550754944188 71.43274262859241 M2.703886389732361 70.5694500207901 C-1.3063761772937141 45.54581099393545, 3.882760327833239 16.654618256143287, -1.9279228448867798 1.2363544702529907 M0.6227663159370422 72.82236784696579 C0.8080162093392573 47.9583077103016, -1.8688579514273442 27.066110366606154, 1.4105032086372375 -1.5996158719062805" stroke="#0b7285" stroke-width="1" fill="none"></path></g><g transform="translate(231.521484375 266.00390625) rotate(0 32.5 12.5)"><text x="32.5" y="18" font-family="Virgil, Segoe UI Emoji" font-size="20px" fill="#0b7285" text-anchor="middle" style="white-space: pre;" direction="ltr">invoker</text></g><g transform="translate(10 10) rotate(0 315.740234375 181.19531249999997)"><path d="M0.4267805576324463 -0.47570252418518066 C209.21294215471715 -4.34548974093888, 418.0286447674269 -3.3563585763880988, 631.3605833530426 -1.387996530532837 M-0.25254776477813723 -0.3331536054611206 C127.00702083314536 -0.09225500459875913, 253.50455329825638 0.8786945498446003, 630.7615444898605 -0.7929611921310425 M630.1878735017979 1.6178913352968716 C629.291970188212 96.31116720195344, 633.2259555631347 199.10324053125876, 632.7150099840609 362.61403770337597 M632.3138056527031 1.0661348782505322 C627.0425448446441 118.84937104086049, 627.4684834334297 236.83652325784553, 632.4276598233198 361.7352183220713 M630.7068129062652 361.24939208030696 C486.76209701373006 363.47105082598415, 344.40004713681986 366.38527964678497, -1.012802267074585 363.0123910427093 M631.450087428093 363.0538352251052 C422.96074038912775 366.60841561926804, 216.20779471735003 366.4566600955864, 0.017451167106628418 363.1759124040603 M0.17257847560621278 360.97692623749634 C-1.2224983049359008 282.35800504766627, -3.235072270444481 200.50554139152993, 2.3231481850130895 -0.8067349831649997 M0.9993403764750611 361.8290059276745 C-0.6858383383318338 263.65027567924784, -1.9314045252657688 166.81852831100187, 1.211753333214761 0.24733428472553978" stroke="#0b7285" stroke-width="1" fill="none"></path></g><g transform="translate(238.58984375 334.07421875) rotate(0 22.5 12.5)"><text x="22.5" y="18" font-family="Virgil, Segoe UI Emoji" font-size="20px" fill="#0b7285" text-anchor="middle" style="white-space: pre;" direction="ltr">mock</text></g><g transform="translate(521.4765625 41.99609375) rotate(0 42.8984375 136.05859375)"><path d="M-3.316217064857483 2.886062264442444 C20.147076832083975 0.6462661599460988, 41.53847131496293 1.5494758462253957, 88.09909284114833 2.3574100732803345 M0.9306085705757141 1.406310260295868 C31.193272166373195 -1.210299709523096, 61.156924531701925 0.0976474492903805, 84.48970776796337 1.7305423617362976 M82.72758309884787 -1.6657042625535623 C84.73958667267539 68.3419103731786, 86.62394035041257 137.64561970049823, 88.90759745016243 271.229946467408 M84.67082268958076 0.47138601716249967 C86.45836191499899 53.20375492165953, 86.06500752805464 109.16880538554166, 86.12704910573132 271.4716161335352 M86.61126554012294 271.5629497766495 C56.71154976305549 270.1912417478021, 33.48212207192553 273.2387385434564, -3.644567131996155 273.21715891361237 M86.45008260011669 271.1012527346611 C58.32618267941285 270.34837510236537, 32.344677778240275 273.45331933149134, -0.12204378843307495 272.94147604703903 M-0.8575407514303486 274.1480629056389 C0.2584739264509591 175.80590388670765, -2.1030682966976366 73.159499547816, -0.9821192598043601 2.080779983728979 M-0.8606213503719695 272.0410569071517 C0.4617015025150354 184.23446818235175, 0.9531070671182984 95.36878514868737, -1.5262006448129124 1.3505849858920134" stroke="#0b7285" stroke-width="1" fill="none"></path></g><g transform="translate(543.71484375 72.40234375) rotate(0 23.990234375 43.39453125)"><path d="M-3.6119731664657593 -1.5567184686660767 C10.273757126939017 -3.183565640973393, 21.014589959406294 -3.4206986670964397, 49.08483850955963 -2.9673362970352173 M-1.2931278347969055 -0.573713481426239 C17.120394343684893 -1.0399309303215705, 37.98820119013544 1.078360924536828, 48.347083270549774 0.8495214581489563 M51.260223031044006 -2.9810997247695923 C50.91278519027401 23.529824975109655, 51.452225345303304 45.6290065109264, 45.1402622461319 83.18091428279874 M48.81627577543259 1.2409246563911438 C49.32128514199983 22.96850258300546, 50.39314831643831 46.910741154151026, 46.682255923748016 88.75772649049756 M45.92404520511627 85.16812741756436 C34.119546287495176 87.0453605235391, 9.05296240893658 90.43347163804106, -0.008781790733337402 86.88324201107022 M48.07381170988083 88.54707890748975 C32.2303639384103 86.58035991374167, 12.08729458490852 85.98563907328757, -1.7426422238349915 87.70627576112744 M0.2271496057510376 83.52768170833585 C2.843962344895117 64.21713014098347, 4.121439609299413 44.48702290956861, 0.07130014896392822 1.7294906377792358 M0.39940184354782104 86.31545239686963 C-2.2398366188956427 68.44999826212877, -0.4178513741446659 51.61561102191916, 0.6407482028007507 1.5564973950386047" stroke="#0b7285" stroke-width="1" fill="none"></path></g><g transform="translate(541.494140625 104.19140625) rotate(91.54148625203868 30 12.5)"><text x="30" y="18" font-family="Virgil, Segoe UI Emoji" font-size="20px" fill="#0b7285" text-anchor="middle" style="white-space: pre;" direction="ltr">render</text></g><g transform="translate(535.98828125 194.7890625) rotate(0 27.80859375 46.8515625)"><path d="M3.5160328149795532 2.420011878013611 C11.938567845453502 -3.997820056811906, 22.29433041498995 -3.537199176684953, 57.451614022254915 -2.39734423160553 M-1.6306903958320618 0.9439027905464172 C12.753080616588697 1.519474311680533, 26.927073796978206 -0.027517036586068633, 56.48193281888959 -1.8787118792533875 M54.66996729373929 -3.266576409339905 C54.21109449946319 31.762677461979912, 56.31059324824248 64.05206316923723, 58.73018229007718 97.07463681697845 M56.9608909487724 1.9091756939888 C56.0073061522003 34.95166713860817, 52.80304627976378 67.4978817277588, 55.24850195646283 92.88325291872025 M59.431933999061556 91.33138120174408 C40.61293907768557 96.55268830223474, 22.60998419537207 92.9198033229867, -2.879310965538025 90.48350751399994 M55.212323367595644 94.50658971071243 C36.41266628832089 92.11924332508352, 18.149325127014883 94.46861428150441, -0.4832809567451477 93.24806195497513 M-1.85041081905365 92.52247846126556 C1.1999855098780245 56.395156868221235, -1.7437286319676786 20.520154611114407, -1.1698344945907593 2.9191116094589233 M0.7935287356376648 94.12872296571732 C-1.0385355880018325 71.96896144184284, 0.647951609874144 52.62932931249961, 1.8783809542655945 -0.672956645488739" stroke="#0b7285" stroke-width="1" fill="none"></path></g><g transform="translate(532.5120873764099 236.5428288638044) rotate(91.01130205749587 32.75445422754672 9.86579946612855)"><text x="32.75445422754676" y="13.731598932257086" font-family="Virgil, Segoe UI Emoji" font-size="15.785279145805664px" fill="#0b7285" text-anchor="middle" style="white-space: pre;" direction="ltr">resource</text></g></svg>